<?xml version="1.0" encoding="UTF-8" standalone="no"?>
<!-- Created with Inkscape (http://www.inkscape.org/) -->

<svg
   xmlns:dc="http://purl.org/dc/elements/1.1/"
   xmlns:cc="http://creativecommons.org/ns#"
   xmlns:rdf="http://www.w3.org/1999/02/22-rdf-syntax-ns#"
   xmlns:svg="http://www.w3.org/2000/svg"
   xmlns="http://www.w3.org/2000/svg"
   xmlns:sodipodi="http://sodipodi.sourceforge.net/DTD/sodipodi-0.dtd"
   xmlns:inkscape="http://www.inkscape.org/namespaces/inkscape"
   width="795.17114"
   height="795.17114"
   viewBox="0 0 795.17114 795.17112"
   id="svg2"
   version="1.1"
   inkscape:version="0.91 r13725"
   sodipodi:docname="playshell.svg"
   inkscape:export-filename="/data/playshell-unsimplified.svg.png"
   inkscape:export-xdpi="843.09003"
   inkscape:export-ydpi="843.09003">
  <defs
     id="defs4">
    <marker
       inkscape:stockid="Arrow1Lstart"
       orient="auto"
       refY="0"
       refX="0"
       id="Arrow1Lstart"
       style="overflow:visible"
       inkscape:isstock="true">
      <path
         id="path4147"
         d="M 0,0 5,-5 -12.5,0 5,5 0,0 Z"
         style="fill-rule:evenodd;stroke:#000000;stroke-width:1pt"
         transform="matrix(0.8,0,0,0.8,10,0)"
         inkscape:connector-curvature="0" />
    </marker>
  </defs>
  <sodipodi:namedview
     id="base"
     pagecolor="#ffffff"
     bordercolor="#666666"
     borderopacity="1.0"
     inkscape:pageopacity="0"
     inkscape:pageshadow="2"
     inkscape:zoom="0.36344377"
     inkscape:cx="-109.85064"
     inkscape:cy="406.74063"
     inkscape:document-units="pt"
     inkscape:current-layer="layer1"
     showgrid="false"
     inkscape:window-width="1366"
     inkscape:window-height="739"
     inkscape:window-x="0"
     inkscape:window-y="0"
     inkscape:window-maximized="1"
     inkscape:snap-text-baseline="false"
     showguides="true"
     inkscape:guide-bbox="true"
     fit-margin-top="0"
     fit-margin-left="0"
     fit-margin-right="0"
     fit-margin-bottom="0"
     showborder="true"
     units="px">
    <sodipodi:guide
       position="3951.2102,4993.0451"
       orientation="0.70710678,0.70710678"
       id="guide4457" />
  </sodipodi:namedview>
  <metadata
     id="metadata7">
    <rdf:RDF>
      <cc:Work
         rdf:about="">
        <dc:format>image/svg+xml</dc:format>
        <dc:type
           rdf:resource="http://purl.org/dc/dcmitype/StillImage" />
        <dc:title></dc:title>
      </cc:Work>
    </rdf:RDF>
  </metadata>
  <g
     inkscape:label="Layer 1"
     inkscape:groupmode="layer"
     id="layer1"
     transform="translate(-2.1961784,-82.791649)">
    <rect
       style="opacity:1;fill:#ffffff;fill-opacity:1;fill-rule:evenodd;stroke:#000000;stroke-width:90;stroke-linecap:round;stroke-linejoin:round;stroke-miterlimit:4;stroke-dasharray:none;stroke-opacity:1"
       id="rect4360"
       width="705.17114"
       height="705.17114"
       x="47.196178"
       y="127.79165" />
    <g
       transform="matrix(11.478299,0,0,13.043868,71.436317,-3881.5503)"
       style="font-style:normal;font-weight:normal;font-size:40px;line-height:125%;font-family:sans-serif;letter-spacing:-0.00081726px;word-spacing:0px;fill:#000000;fill-opacity:1;stroke:#000000;stroke-width:3.26902342;stroke-linecap:round;stroke-linejoin:round;stroke-miterlimit:4;stroke-dasharray:none;stroke-dashoffset:0;stroke-opacity:1"
       id="flowRoot4136" />
    <g
       transform="matrix(11.478299,0,0,13.043868,-169.06121,-3877.5097)"
       style="font-style:normal;font-weight:normal;font-size:40px;line-height:125%;font-family:sans-serif;letter-spacing:-0.00081726px;word-spacing:0px;fill:#000000;fill-opacity:1;stroke:#000000;stroke-width:3.26902342;stroke-linecap:round;stroke-linejoin:round;stroke-miterlimit:4;stroke-dasharray:none;stroke-opacity:1"
       id="flowRoot4374" />
  </g>
  <g
     inkscape:groupmode="layer"
     id="layer2"
     inkscape:label="Layer 2">
    <g
       id="g4201"
       transform="translate(-1.3757337,-6.8786437)">
      <path
         id="path4155"
         style="font-style:normal;font-weight:normal;font-size:40px;line-height:125%;font-family:sans-serif;letter-spacing:-0.00081726px;word-spacing:0px;fill:#000000;fill-opacity:1;stroke:#000000;stroke-width:40;stroke-linecap:round;stroke-linejoin:round;stroke-miterlimit:4;stroke-dasharray:none;stroke-dashoffset:0;stroke-opacity:1"
         d="m 559.89977,359.78897 -65.23799,0 -18.83159,85.09076 65.68636,0 18.38322,-85.09076 z m -33.62784,-144.96029 -23.31529,105.72668 65.46217,0 23.53949,-105.72668 35.86969,0 -23.09111,105.72668 69.94588,0 0,39.23361 -78.68912,0 -18.38321,85.09076 71.29099,0 0,38.97873 -80.03423,0 -23.31529,105.47193 -35.86969,0 23.09111,-105.47193 -65.68636,0 -23.0911,105.47193 -36.09388,0 23.31529,-105.47193 -70.61843,0 0,-38.97873 78.9133,0 18.83159,-85.09076 -72.18775,0 0,-39.23361 80.93098,0 22.86693,-105.72668 36.31804,0 z"
         inkscape:connector-curvature="0" />
      <path
         id="path4152"
         style="font-style:normal;font-weight:normal;font-size:40px;line-height:125%;font-family:sans-serif;letter-spacing:-0.00081726px;word-spacing:0px;fill:#000000;fill-opacity:1;stroke:#000000;stroke-width:40;stroke-linecap:round;stroke-linejoin:round;stroke-miterlimit:4;stroke-dasharray:none;stroke-opacity:1"
         d="m 219.19131,213.00984 19.50414,0 1.79349,1.78323 0,9.93578 q 6.05301,13.75723 44.8371,29.80732 53.80453,17.83345 53.80453,52.99072 0,37.19537 -27.35064,61.65262 l -0.8968,0 -6.72556,-8.15242 q 13.67531,-12.48337 13.67531,-33.8834 0,-17.83345 -51.1143,-35.92164 -20.62507,-10.70002 -26.2297,-17.32395 l 0,271.5775 q 0,38.97873 -50.21756,50.44299 l -12.77857,0 q -54.2529,0 -54.2529,-42.80019 0,-33.37391 47.52733,-39.23348 l 5.15627,0 q 21.52181,0 41.47432,16.30484 l 0,-315.39669 1.79348,-1.78323 z"
         inkscape:connector-curvature="0" />
    </g>
  </g>
</svg>
