<?xml version="1.0" encoding="UTF-8" standalone="no"?>
<svg xmlns:cc="http://creativecommons.org/ns#" xmlns="http://www.w3.org/2000/svg" version="1.1" id="svg2" enable-background="new 0 0 67.6 49" viewBox="0 0 67.6 49">
	<path id="path1" d="M 67.600002,49.000001 0,49.000001 0,-5.5301825e-7 l 67.600002,0 z M 55.700001,43.2 c -4.166667,-5.266667 -8.333333,-10.533333 -12.5,-15.8 -2.266666,2.466344 -4.533333,4.932689 -6.799999,7.399033 -1.649364,0 -3.298729,0 -4.948093,0 C 29.06794,32.332689 26.68397,29.866344 24.300001,27.4 20.333333,32.666667 16.366667,37.933333 12.4,43.2 c 14.433334,0 28.866668,0 43.300001,0 z M 5.8000001,6.5999997 c 0,11.8333333 0,23.6666673 0,35.5000003 C 10.766667,35.733333 15.733333,29.366667 20.7,23 15.733333,17.533333 10.766667,12.066667 5.8000001,6.5999997 z M 12.4,5.7999997 C 19.566667,13.533333 26.733334,21.266667 33.900001,29 40.833335,21.266667 47.766668,13.533333 54.700002,5.7999997 c -14.1,0 -28.200001,0 -42.300002,0 z M 61.800002,6.5999993 C 56.933335,12.066666 52.066668,17.533333 47.200001,23 c 4.866667,6.366667 9.733333,12.733333 14.6,19.1" style="fill:#fefefe;fill-opacity:1;fill-rule:evenodd" />
</svg>
