<svg xmlns:cc="http://creativecommons.org/ns#" xmlns="http://www.w3.org/2000/svg" version="1.1" id="svg2" viewBox="0 0 139 135" height="135" width="139"><path id="rect3388" d="m 41.647391,30.731711 c 23.370479,0 46.740958,0 70.111439,0 0,24.269343 0,48.538688 0,72.808039 -23.370481,0 -46.74096,0 -70.111439,0 0,-24.269351 0,-48.538696 0,-72.808039 z" style="opacity:0.98000004;fill:#ffffff;fill-opacity:1;fill-rule:evenodd;stroke:none;stroke-width:6.96299982;stroke-linecap:round;stroke-linejoin:round;stroke-miterlimit:4;stroke-dasharray:none;stroke-opacity:1" /><path style="fill:#2e9fff" id="path4" d="M 72.035,135 C 55.517,135 40.414,128.964 28.737,118.979 L 0,122.905 11.102,95.504 A 67.658,67.658 0 0 1 5.064,67.5 C 5.064,30.223 35.048,0 72.035,0 109.019,0 139,30.223 139,67.5 139,104.784 109.02,135 72.035,135 Z m 36.567,-67.693 0,-0.188 c 0,-19.478 -13.736,-33.367 -37.42,-33.367 l -25.58,0 0,67.5 25.201,0 c 23.868,0.001 37.799,-14.468 37.799,-33.945 z m -37.138,17.361 -7.482,0 0,-34.327 7.482,0 c 10.989,0 18.283,6.265 18.283,17.07 l 0,0.188 c 0,10.896 -7.294,17.069 -18.283,17.069 z" /></svg>
