<svg xmlns:cc="http://creativecommons.org/ns#" xmlns="http://www.w3.org/2000/svg" id="stack-overflow-trimed" viewBox="0 0 100 128" version="1.1" xml:space="preserve" width="100" height="128">
	<g id="layer1" transform="translate(-15,0)">
		<path d="m 93.6174,58.3494 8.8737,-6.0765 -28.3358,-41.7393 -8.8752,6.0792 28.3373,41.7366 z M 86.4124,69.123 91.8693,59.8302 48.551,34.1658 43.0914,43.457 86.4124,69.123 Z M 82.7417,82.5912 85.5295,72.1721 36.9626,59.0572 34.1726,69.4769 82.7417,82.5912 Z M 81.2401,96.9938 82.2256,86.252 32.1469,81.617 31.1609,92.362 81.2401,96.9938 Z M 104.4148,51.6174 115,49.773 106.3965,0 95.8129,1.845 l 8.6019,49.7724 z m -23.3987,59.259 -0.0064,-10.7904 -50.2924,0.0248 0.0048,10.7893 50.294,-0.0237 z" id="path1" style="fill:#ff9900" />
		<path d="m 89.5563,75.384 0,44.1097 -65.9651,0 0,-44.1097 -8.5912,0 0,52.575 0.0854,0 c 0,0.041 2.508,0.041 2.508,0.041 l 80.4692,0 0,-0.041 c 0.0848,0 0.0848,-2.5204 0.0848,-2.5204 l 0,-50.0546 -8.5911,0 z" id="path2" style="fill:#867d7e" />
	</g>
</svg>
